<svg width="41" height="41" viewBox="0 0 41 41" fill="none" xmlns="http://www.w3.org/2000/svg">
<rect y="0.00918579" width="40.0016" height="40.0024" rx="20.0008" fill="#2C2C2C"/>
<path d="M20.0007 20.0104C20.0007 18.7306 20.5091 17.5032 21.4141 16.5983C22.319 15.6934 23.5464 15.185 24.8261 15.185C26.1059 15.185 27.3333 15.6934 28.2382 16.5983C29.1431 17.5032 29.6515 18.7306 29.6515 20.0104C29.6515 21.2901 29.1431 22.5175 28.2382 23.4224C27.3333 24.3274 26.1059 24.8358 24.8261 24.8358C23.5464 24.8358 22.319 24.3274 21.4141 23.4224C20.5091 22.5175 20.0007 21.2901 20.0007 20.0104Z" fill="#1ABCFE"/>
<path d="M10.35 29.6611C10.35 28.3814 10.8584 27.154 11.7633 26.2491C12.6682 25.3441 13.8956 24.8358 15.1754 24.8358H20.0008V29.6611C20.0008 30.9409 19.4924 32.1683 18.5874 33.0732C17.6825 33.9782 16.4551 34.4865 15.1754 34.4865C13.8956 34.4865 12.6682 33.9782 11.7633 33.0732C10.8584 32.1683 10.35 30.9409 10.35 29.6611V29.6611Z" fill="#0ACF83"/>
<path d="M20.0007 5.53418V15.185H24.8261C26.1059 15.185 27.3333 14.6766 28.2382 13.7716C29.1431 12.8667 29.6515 11.6394 29.6515 10.3596C29.6515 9.0798 29.1431 7.85244 28.2382 6.94751C27.3333 6.04257 26.1059 5.53418 24.8261 5.53418H20.0007Z" fill="#FF7262"/>
<path d="M10.35 10.3596C10.35 11.6394 10.8584 12.8667 11.7633 13.7716C12.6682 14.6766 13.8956 15.185 15.1754 15.185H20.0008V5.53418H15.1754C13.8956 5.53418 12.6682 6.04257 11.7633 6.94751C10.8584 7.85244 10.35 9.0798 10.35 10.3596V10.3596Z" fill="#F24E1E"/>
<path d="M10.35 20.0104C10.35 21.2901 10.8584 22.5175 11.7633 23.4224C12.6682 24.3274 13.8956 24.8358 15.1754 24.8358H20.0008V15.185H15.1754C13.8956 15.185 12.6682 15.6934 11.7633 16.5983C10.8584 17.5032 10.35 18.7306 10.35 20.0104V20.0104Z" fill="#A259FF"/>
</svg>
