<svg width="41" height="41" viewBox="0 0 41 41" fill="none" xmlns="http://www.w3.org/2000/svg">
<g clip-path="url(#clip0_105_433)">
<rect x="0.00537109" y="0.00918579" width="40.0023" height="40.0042" rx="20.0011" fill="#2C2C2C"/>
<path d="M15.8864 39.0997C15.8864 38.6673 15.8708 37.523 15.8619 36.0043C10.7986 37.1039 9.73031 33.5638 9.73031 33.5638C8.90227 31.4607 7.70882 30.9009 7.70882 30.9009C6.05609 29.7722 7.83397 29.7946 7.83397 29.7946C9.66103 29.9231 10.6221 31.6708 10.6221 31.6708C12.2457 34.4522 14.883 33.6487 15.92 33.1827C16.0854 32.0071 16.5558 31.2048 17.0754 30.75C13.0335 30.2896 8.78382 28.7285 8.78382 21.7533C8.78382 19.7653 9.49342 18.1416 10.6578 16.8688C10.4701 16.4084 9.84542 14.5579 10.8366 12.0514C10.8366 12.0514 12.3642 11.5619 15.8417 13.9164C17.2933 13.513 18.8511 13.3119 20.3988 13.3041C21.9453 13.3119 23.502 13.513 24.9558 13.9164C28.4311 11.5619 29.9565 12.0514 29.9565 12.0514C30.9499 14.5579 30.3252 16.4084 30.1386 16.8688C31.3053 18.1416 32.0093 19.7653 32.0093 21.7533C32.0093 28.7464 27.7528 30.2851 23.6987 30.7355C24.3513 31.2976 24.9335 32.4083 24.9335 34.1069C24.9335 36.5396 24.9111 38.503 24.9111 39.0997C24.9111 39.5117 25.1541 39.9804 25.7852 40.0079H14.9585C15.6323 40.0054 15.8864 39.5222 15.8864 39.0997Z" fill="white"/>
</g>
<defs>
<clipPath id="clip0_105_433">
<rect x="0.00537109" y="0.00918579" width="40.0023" height="40.0042" rx="20.0011" fill="white"/>
</clipPath>
</defs>
</svg>
