<svg width="40" height="41" viewBox="0 0 40 41" fill="none" xmlns="http://www.w3.org/2000/svg">
<rect x="0.00177002" y="0.00418091" width="39.997" height="40.0048" rx="19.9985" fill="#F7DF1E"/>
<path fill-rule="evenodd" clip-rule="evenodd" d="M10.2578 24.0745L7.31177 25.927C8.1645 27.8065 9.84437 29.3636 12.7384 29.3636C15.9429 29.3636 18.1393 27.5914 18.1393 23.6981V10.864H14.5215V23.6449C14.5215 25.5243 13.7721 26.0075 12.5833 26.0075C11.3432 26.0075 10.8262 25.1216 10.2578 24.0745ZM23.0499 23.7522L20.1042 25.5243C21.1635 27.6993 23.3343 29.364 26.6937 29.364C30.1305 29.364 32.6888 27.5114 32.6888 24.1281C32.6888 20.9867 30.9573 19.5906 27.8822 18.2212L26.9778 17.8184C25.4275 17.1203 24.7556 16.6637 24.7556 15.536C24.7556 14.6232 25.4275 13.9251 26.487 13.9251C27.5206 13.9251 28.1923 14.3815 28.8125 15.536L31.6293 13.6565C30.4407 11.4816 28.7869 10.6492 26.4869 10.6492C23.2566 10.6492 21.1894 12.7973 21.1894 15.6166C21.1894 18.6776 22.9208 20.1275 25.5309 21.2819L26.4351 21.6849C28.089 22.4365 29.0709 22.893 29.0709 24.1818C29.0709 25.2558 28.1151 26.0346 26.6161 26.0346C24.8331 26.0346 23.8253 25.068 23.0499 23.7522Z" fill="white"/>
</svg>
