<svg width="40" height="41" viewBox="0 0 40 41" fill="none" xmlns="http://www.w3.org/2000/svg">
<rect y="0.00418091" width="40" height="40" rx="20" fill="#6996DB"/>
<path d="M18.1543 31.2835C18.0722 31.3596 18.0078 31.4768 18.0078 31.5471C18.0078 31.6116 18.0722 31.7346 18.1543 31.8108L18.2949 31.9573H20H21.7051L21.8457 31.8108C21.9277 31.7346 21.9922 31.6116 21.9922 31.5471C21.9922 31.4827 21.9277 31.3596 21.8457 31.2835L21.7051 31.137H20H18.2949L18.1543 31.2835Z" fill="white"/>
<path d="M13.0683 6.15262C12.875 6.21121 12.6816 6.34012 12.4707 6.54519C11.9258 7.0784 11.9726 5.78934 11.9726 20.0042C11.9726 34.0022 11.9375 32.9065 12.3886 33.3929C12.5234 33.5335 12.7519 33.7093 12.8984 33.7854L13.1738 33.9202H20H26.8262L27.1015 33.7854C27.248 33.7093 27.4765 33.5335 27.6113 33.3929C28.0625 32.9065 28.0273 34.0022 28.0273 20.0042C28.0273 5.78934 28.0742 7.0784 27.5293 6.54519C26.9961 6.02371 27.5234 6.05887 19.9765 6.06473C14.2929 6.06473 13.3086 6.0823 13.0683 6.15262ZM16.3672 7.74051C16.5957 8.21512 16.8359 8.66629 16.9062 8.7366L17.0293 8.87137H20H22.9707L23.0937 8.7366C23.164 8.66629 23.4043 8.21512 23.6328 7.74051L24.0429 6.87918H25.2734C26.6094 6.87918 26.7617 6.90848 27.0312 7.20145L27.1777 7.35965V20.0042V32.6487L27.0312 32.8069C26.7207 33.1468 27.0547 33.1292 20 33.1292C12.9453 33.1292 13.2793 33.1468 12.9687 32.8069L12.8222 32.6487V20.0042V7.35965L12.9687 7.20145C13.2383 6.90848 13.3672 6.88504 14.7148 6.87918H15.957L16.3672 7.74051ZM23.1054 6.90262C23.1054 6.91434 22.9824 7.17801 22.8359 7.48856L22.5605 8.05106H20H17.4394L17.164 7.48856C17.0176 7.17801 16.8945 6.91434 16.8945 6.90262C16.8945 6.8909 18.2949 6.87918 20 6.87918C21.7109 6.87918 23.1054 6.8909 23.1054 6.90262Z" fill="white"/>
</svg>
